# xmcd
#
# Track frame offsets:
#     150
#     2764
#     14945
#     26218
#     35153
#     49506
#     64769
#     78707
#     90273
#     95000
#     106406
#     113223
#     121331
#
# Disc length: 1773 seconds
#
# Revision: 0
# Processed by: cddbd v1.5.2PL0 Copyright (c) Steve Scherf et al.
# Submitted via: gnudb v1.0.1
#
DISCID=ac06eb0d
DTITLE=Various / Putumayo Kids Presents: Sesame Street Playground
DYEAR=2008
DGENRE=
TTITLE0=Sesame Street Theme / Sesamstraat Open
TTITLE1=Pollution Song
TTITLE2=Elmo's Song
TTITLE3=Rubber Duckie
TTITLE4=La chanson de l'amitié
TTITLE5=The Song of Caretakers
TTITLE6=Sing
TTITLE7=Ricas Frutas
TTITLE8=Galli Galli Sim Sim Theme / Show Open
TTITLE9=Traditional Game Song
TTITLE10=En Den Dino
TTITLE11=Don't Be Sad Song
TTITLE12=One Small Voice
EXTD=
EXTT0=Sesamstraat
EXTT1=Takalani Sesame
EXTT2=Sesame Street
EXTT3=Zhima Jie
EXTT4=5, rue Sésame
EXTT5=Ulitsa Sezam
EXTT6=Sesame Street
EXTT7=Plaza Sésamo
EXTT8=Galli Galli Sim Sim
EXTT9=Shara'a Simsim
EXTT10=Rechov Sumsum
EXTT11=Kilimani Sesame
EXTT12=Vila Sésamo
PLAYORDER=
.
